<svg width="4" height="16" viewBox="0 0 4 16" fill="none" xmlns="http://www.w3.org/2000/svg">
<path d="M1.75 3.5C0.7835 3.5 0 2.7165 0 1.75C0 0.7835 0.7835 0 1.75 0C2.7165 0 3.5 0.7835 3.5 1.75C3.5 2.7165 2.7165 3.5 1.75 3.5ZM1.75 9.5C0.7835 9.5 0 8.7165 0 7.75C0 6.7835 0.7835 6 1.75 6C2.7165 6 3.5 6.7835 3.5 7.75C3.5 8.7165 2.7165 9.5 1.75 9.5ZM0 13.75C0 14.7165 0.7835 15.5 1.75 15.5C2.7165 15.5 3.5 14.7165 3.5 13.75C3.5 12.7835 2.7165 12 1.75 12C0.7835 12 0 12.7835 0 13.75Z" fill="#212121" fill-opacity="0.9"/>
</svg>
