<svg width="18" height="20" viewBox="0 0 18 20" fill="none" xmlns="http://www.w3.org/2000/svg">
<path d="M8.9876 0C10.4351 0 11.7878 0.40687 12.9353 1.11448C12.5934 1.47975 12.329 1.91821 12.1682 2.40375C11.2457 1.83007 10.1554 1.49959 8.9876 1.49959C5.66297 1.49959 2.97997 4.17312 2.97949 7.49797V11.9064L1.63369 14.9997H16.3502L14.9958 11.9074L14.9959 7.51082L14.9921 7.28568C14.9884 7.17734 14.9818 7.06977 14.9725 6.96302C15.1435 6.98862 15.3185 7.00189 15.4966 7.00189C15.8347 7.00189 16.1616 6.95409 16.4709 6.86489C16.4816 6.99138 16.4892 7.1188 16.4936 7.24709L16.4978 7.49797V11.5939L17.8797 14.749C17.9489 14.9069 17.9846 15.0774 17.9846 15.2497C17.9846 15.9398 17.4241 16.4993 16.7329 16.4993L11.9917 16.5008C11.9917 18.1572 10.6467 19.5 8.9876 19.5C7.3878 19.5 6.08004 18.2514 5.98867 16.6771L5.98312 16.4986L1.25202 16.4993C1.08044 16.4993 0.910702 16.4641 0.753342 16.3959C0.119282 16.1209 -0.171468 15.3848 0.103942 14.7518L1.47746 11.5948V7.49786C1.47805 3.34419 4.8341 0 8.9876 0ZM10.4892 16.4986L7.4856 16.5008C7.4856 17.329 8.1581 18.0004 8.9876 18.0004C9.7684 18.0004 10.41 17.4057 10.4828 16.6452L10.4892 16.4986ZM13.033 3.05656C13.1282 2.52942 13.3889 2.05974 13.7595 1.7031C14.2097 1.26992 14.822 1.00351 15.4966 1.00351C16.8792 1.00351 18 2.12249 18 3.50283C18 4.59572 17.2974 5.52477 16.3185 5.86432C16.0611 5.95363 15.7845 6.00216 15.4966 6.00216C15.2482 6.00216 15.0083 5.96604 14.7818 5.89878C13.7475 5.59166 12.9932 4.63518 12.9932 3.50283C12.9932 3.35051 13.0069 3.20137 13.033 3.05656Z" fill="#212121" fill-opacity="0.9"/>
</svg>
