<svg width="26" height="26" viewBox="0 0 26 26" fill="none" xmlns="http://www.w3.org/2000/svg">
<path d="M15.8729 1.73139L24.2698 10.1283C25.8563 11.7148 25.8563 14.287 24.2698 15.8735L15.8729 24.2704C14.2864 25.8569 11.7141 25.8569 10.1277 24.2704L1.73078 15.8735C0.144265 14.287 0.144265 11.7148 1.73078 10.1283L10.1277 1.73139C11.7141 0.144876 14.2864 0.144876 15.8729 1.73139ZM11.4535 3.05721L3.0566 11.4541C2.20233 12.3084 2.20233 13.6934 3.0566 14.5478L11.4535 22.9446C12.3078 23.7989 13.6928 23.7989 14.5471 22.9446L22.944 14.5478C23.7983 13.6934 23.7983 12.3084 22.944 11.4541L14.5471 3.05721C13.6928 2.20294 12.3078 2.20294 11.4535 3.05721ZM13.5724 7.13146L13.6633 7.02631C13.996 6.69348 14.5169 6.66321 14.8839 6.93554L14.989 7.02631L17.489 9.52631C17.8219 9.85914 17.8521 10.38 17.5798 10.747L17.489 10.8521L14.989 13.3521C14.6229 13.7183 14.0294 13.7183 13.6633 13.3521C13.3304 13.0193 13.3001 12.4985 13.5724 12.1315L13.6633 12.0263L14.5621 11.1253L12.6878 11.1259C11.8788 11.1259 11.2134 11.7408 11.1334 12.5286L11.1253 12.6884V16.7509C11.1253 17.2686 10.7055 17.6884 10.1878 17.6884C9.71317 17.6884 9.32093 17.3358 9.25885 16.8781L9.25029 16.7509V12.6884C9.25029 10.8603 10.6774 9.36539 12.4784 9.25718L12.6878 9.2509L14.5609 9.25025L13.6633 8.35214C13.3304 8.0193 13.3001 7.49848 13.5724 7.13146L13.6633 7.02631L13.5724 7.13146Z" fill="#212121"/>
</svg>
